<?xml version="1.0" standalone="no"?>
<!DOCTYPE svg PUBLIC "-//W3C//DTD SVG 20010904//EN"
 "http://www.w3.org/TR/2001/REC-SVG-20010904/DTD/svg10.dtd">
<svg version="1.0" xmlns="http://www.w3.org/2000/svg"
 width="512.000000pt" height="512.000000pt" viewBox="0 0 512.000000 512.000000"
 preserveAspectRatio="xMidYMid meet">

<g transform="translate(0.000000,512.000000) scale(0.100000,-0.100000)"
fill="#000000" stroke="none">
<path d="M1068 5001 c-71 -23 -112 -49 -165 -103 -41 -42 -93 -129 -93 -154 0
-9 -42 -13 -173 -16 -197 -3 -218 -10 -236 -75 -7 -23 -11 -169 -11 -365 l0
-326 -146 -239 -145 -238 3 -170 c3 -165 4 -172 32 -230 39 -79 111 -149 191
-187 l65 -30 0 -1283 0 -1283 -159 -4 c-144 -3 -162 -5 -188 -24 -56 -42 -52
-128 8 -159 42 -22 4976 -22 5018 0 60 31 64 117 8 159 -26 19 -44 21 -188 24
l-159 4 0 1283 0 1283 65 30 c80 38 152 108 191 187 28 58 29 65 32 230 l3
170 -145 238 -146 239 0 326 c0 196 -4 342 -11 365 -17 64 -40 72 -229 75
l-167 4 -26 58 c-38 82 -108 152 -192 192 l-70 33 -1455 2 c-1382 2 -1458 1
-1512 -16z m2980 -214 c72 -47 102 -142 73 -230 -15 -45 -78 -102 -128 -117
-27 -8 -441 -10 -1455 -8 l-1416 3 -44 30 c-126 88 -112 267 27 339 27 14 179
16 1466 13 l1435 -2 42 -28z m-3237 -284 c48 -134 162 -234 297 -262 71 -15
2825 -16 2903 -1 126 24 235 109 285 224 l28 66 103 0 103 0 0 -245 0 -245
-1970 0 -1970 0 0 245 0 245 105 0 105 0 11 -27z m-21 -805 l-68 -143 -172 -3
c-95 -1 -170 1 -168 6 1 4 41 70 87 145 l83 137 153 0 154 0 -69 -142z m551 0
l-37 -143 -178 -3 -177 -2 7 22 c3 12 34 77 67 145 l60 123 148 0 147 0 -37
-142z m556 120 c-3 -13 -9 -78 -13 -145 l-7 -123 -182 0 -183 0 34 133 c19 72
36 138 39 145 3 9 45 12 161 12 l156 0 -5 -22z m573 -123 l0 -145 -196 0 -196
0 6 88 c4 48 9 113 12 145 l6 57 184 0 184 0 0 -145z m565 -3 l10 -142 -187 0
-188 0 0 145 0 145 178 -2 177 -3 10 -143z m545 16 c18 -73 35 -139 38 -145 3
-10 -37 -13 -181 -13 l-185 0 -6 38 c-3 20 -8 85 -12 145 l-6 107 159 0 159 0
34 -132z m529 -10 l68 -143 -170 -3 c-93 -1 -172 -1 -174 2 -6 5 -73 258 -73
274 0 9 35 12 141 12 l140 0 68 -142z m553 -3 l88 -145 -174 0 -173 0 -63 133
c-34 72 -64 138 -67 145 -4 9 29 12 148 12 l154 -1 87 -144z m-3382 -397 c0
-154 -86 -247 -216 -236 -112 9 -174 86 -174 216 l0 72 195 0 195 0 0 -52z
m1180 -15 c0 -80 -23 -137 -68 -175 -68 -57 -172 -63 -236 -15 -64 49 -79 81
-84 174 l-5 83 197 0 196 0 0 -67z m1179 -16 c-3 -68 -8 -90 -28 -119 -54 -78
-148 -107 -236 -74 -84 32 -125 104 -125 219 l0 57 196 0 196 0 -3 -83z m1188
9 c-7 -92 -33 -147 -89 -183 -35 -24 -52 -28 -108 -28 -122 0 -185 67 -197
210 l-6 75 203 0 203 0 -6 -74z m-3894 -386 c130 -58 309 -25 418 77 l26 24
49 -41 c146 -121 378 -116 511 12 l32 31 46 -41 c140 -123 378 -118 513 11
l32 31 33 -31 c134 -129 372 -134 512 -11 l46 41 32 -31 c133 -128 365 -133
511 -12 l49 41 26 -24 c79 -74 193 -113 303 -104 78 7 142 32 213 86 l51 38
34 -29 c19 -17 63 -44 98 -60 l62 -30 0 -1284 0 -1284 -95 0 -95 0 0 1073 c0
721 -4 1084 -11 1110 -7 26 -21 44 -42 57 -31 19 -55 20 -647 20 -592 0 -616
-1 -647 -20 -21 -13 -35 -31 -42 -57 -7 -26 -11 -389 -11 -1110 l0 -1073
-1175 0 -1175 0 0 1284 0 1284 63 30 c34 16 78 43 97 60 l34 29 51 -38 c28
-21 72 -48 98 -59z m3197 -1560 l0 -1030 -490 0 -490 0 0 1030 0 1030 490 0
490 0 0 -1030z"/>
<path d="M838 2544 c-15 -8 -32 -23 -38 -34 -7 -12 -10 -299 -10 -843 l0 -824
25 -25 c14 -14 39 -28 56 -32 41 -8 1757 -8 1798 0 17 4 42 18 56 32 l25 25 0
824 c0 546 -3 831 -10 844 -27 50 -2 49 -972 49 -777 -1 -907 -3 -930 -16z
m1720 -871 l-3 -688 -782 -3 -783 -2 0 690 0 690 785 0 785 0 -2 -687z"/>
<path d="M3314 1471 c-59 -25 -82 -106 -44 -154 58 -74 180 -34 180 59 0 64
-79 119 -136 95z"/>
</g>
</svg>
